<svg width="28" height="33" fill="none" xmlns="http://www.w3.org/2000/svg"><path d="M4.843 1.81c2.122.373 5.125.56 9.009.56 3.883 0 6.76-.187 8.628-.56v-.2c0-.428.147-.761.44-1.002.307-.24.661-.36 1.061-.36.414 0 .734.127.961.38.227.24.374.514.44.821.12.694.321 1.442.601 2.242l.34.981c.134.347.288.721.461 1.121.174.388.26.808.26 1.262 0 .453-.14.807-.42 1.06-.267.254-.6.381-1.001.381-.747 0-1.288-.447-1.622-1.341-.32-.908-.707-1.502-1.16-1.782-.441-.294-1.209-.44-2.303-.44h-.48l-4.565.32v24.524h2.483c.92 0 1.561.167 1.922.5.373.32.56.694.56 1.121 0 .428-.16.801-.48 1.122-.32.32-.868.48-1.642.48h-1.021c-.2-.013-.4-.02-.6-.02l-.962-.06c-.44-.027-1.127-.04-2.062-.04-.92 0-1.655.013-2.202.04-.534.027-.894.04-1.08.04l-.601.04H8.787c-.601 0-1.081-.14-1.442-.42-.347-.294-.52-.681-.52-1.161 0-.481.207-.875.62-1.182.414-.307.961-.46 1.642-.46h2.683V5.213l-2.203-.16a73.21 73.21 0 0 0-1.02-.06 7.007 7.007 0 0 0-.681-.04 7.336 7.336 0 0 0-.52-.02c-.16-.014-.568-.02-1.222-.02s-1.208.146-1.662.44c-.44.28-.787.767-1.04 1.461-.254.681-.508 1.135-.761 1.362-.254.213-.574.32-.961.32-.4 0-.734-.127-1.001-.38-.28-.254-.42-.608-.42-1.061 0-.454.086-.874.26-1.262.173-.4.327-.78.46-1.14l.34-.962c.174-.52.3-.94.38-1.26l.22-.942C2.1.662 2.535.248 3.242.248c.708 0 1.195.254 1.462.76.093.174.14.374.14.601v.2Z" fill="#F72585"/></svg>